<svg width="172" height="39" viewBox="0 0 172 39" fill="none" xmlns="http://www.w3.org/2000/svg">
<path d="M14.31 0L17.5228 9.88795H27.9196L19.5084 15.999L22.7212 25.887L14.31 19.7759L5.89878 25.887L9.11157 15.999L0.70038 9.88795H11.0972L14.31 0Z" fill="white"/>
<path d="M50.0849 0L53.2977 9.88795H63.6945L55.2833 15.999L58.4961 25.887L50.0849 19.7759L41.6737 25.887L44.8865 15.999L36.4753 9.88795H46.8721L50.0849 0Z" fill="white"/>
<path d="M85.8598 0L89.0726 9.88795H99.4694L91.0582 15.999L94.271 25.887L85.8598 19.7759L77.4486 25.887L80.6614 15.999L72.2502 9.88795H82.647L85.8598 0Z" fill="white"/>
<path d="M121.635 0L124.847 9.88795H135.244L126.833 15.999L130.046 25.887L121.635 19.7759L113.223 25.887L116.436 15.999L108.025 9.88795H118.422L121.635 0Z" fill="white"/>
<path d="M157.41 0L160.622 9.88795H171.019L162.608 15.999L165.821 25.887L157.41 19.7759L148.998 25.887L152.211 15.999L143.8 9.88795H154.197L157.41 0Z" fill="white"/>
</svg>
